<svg xmlns="http://www.w3.org/2000/svg" viewBox="0 0 1100 600" width="1100" height="600" font-family="Arial, Helvetica, sans-serif">

  <rect width="1100" height="600" fill="white"/>

  <!--
    Plot area: x=80 to x=880, y=30 to y=500
    Width=800, Height=470
    X positions: C1=80, C2=347, C3=613, C4=880
    Y: y = 500 - value*4.70
    ACT:     C1=92→69,  C2=80→124, C3=56→237, C4=84→105
    π0:      C1=72→162, C2=84→105, C3=8→462,  C4=76→143
    SmolVLA: C1=40→312, C2=24→387, C3=4→481,  C4=88→87
    XVLA:    C1=60→218, C2=32→350, C3=40→312, C4=16→425
  -->

  <!-- ═══ GRIDLINES & Y-AXIS ═══ -->
  <line x1="80" y1="30" x2="80" y2="500" stroke="#333" stroke-width="1.8"/>

  <!-- 0% -->
  <line x1="75" y1="500" x2="880" y2="500" stroke="#e2e2e2" stroke-width="1"/>
  <line x1="75" y1="500" x2="80" y2="500" stroke="#444" stroke-width="1.5"/>
  <text x="66" y="504" text-anchor="end" font-size="14" fill="#333">0</text>
  <!-- 20% -->
  <line x1="75" y1="406" x2="880" y2="406" stroke="#e2e2e2" stroke-width="1"/>
  <line x1="75" y1="406" x2="80" y2="406" stroke="#444" stroke-width="1.5"/>
  <text x="66" y="410" text-anchor="end" font-size="14" fill="#333">20</text>
  <!-- 40% -->
  <line x1="75" y1="312" x2="880" y2="312" stroke="#e2e2e2" stroke-width="1"/>
  <line x1="75" y1="312" x2="80" y2="312" stroke="#444" stroke-width="1.5"/>
  <text x="66" y="316" text-anchor="end" font-size="14" fill="#333">40</text>
  <!-- 60% -->
  <line x1="75" y1="218" x2="880" y2="218" stroke="#e2e2e2" stroke-width="1"/>
  <line x1="75" y1="218" x2="80" y2="218" stroke="#444" stroke-width="1.5"/>
  <text x="66" y="222" text-anchor="end" font-size="14" fill="#333">60</text>
  <!-- 80% -->
  <line x1="75" y1="124" x2="880" y2="124" stroke="#e2e2e2" stroke-width="1"/>
  <line x1="75" y1="124" x2="80" y2="124" stroke="#444" stroke-width="1.5"/>
  <text x="66" y="128" text-anchor="end" font-size="14" fill="#333">80</text>
  <!-- 100% -->
  <line x1="75" y1="30"  x2="880" y2="30"  stroke="#e2e2e2" stroke-width="1"/>
  <line x1="75" y1="30"  x2="80" y2="30"  stroke="#444" stroke-width="1.5"/>
  <text x="66" y="34" text-anchor="end" font-size="14" fill="#333">100</text>

  <!-- Y-axis label -->
  <text x="18" y="265" text-anchor="middle" font-size="15" font-weight="bold" fill="#333" transform="rotate(-90,18,265)">Success rate (%)</text>

  <!-- ═══ X-AXIS ═══ -->
  <line x1="80" y1="500" x2="880" y2="500" stroke="#333" stroke-width="1.8"/>
  <!-- ticks -->
  <line x1="80"  y1="500" x2="80"  y2="510" stroke="#444" stroke-width="1.5"/>
  <line x1="347" y1="500" x2="347" y2="510" stroke="#444" stroke-width="1.5"/>
  <line x1="613" y1="500" x2="613" y2="510" stroke="#444" stroke-width="1.5"/>
  <line x1="880" y1="500" x2="880" y2="510" stroke="#444" stroke-width="1.5"/>
  <!-- labels -->
  <text x="80"  y="527" text-anchor="middle" font-size="15" font-weight="bold" fill="#222">C1</text>
  <text x="347" y="527" text-anchor="middle" font-size="15" font-weight="bold" fill="#222">C2</text>
  <text x="613" y="527" text-anchor="middle" font-size="15" font-weight="bold" fill="#222">C3</text>
  <text x="880" y="527" text-anchor="middle" font-size="15" font-weight="bold" fill="#666">C4 *</text>

  <!-- ══════════════════════════════════
       ACT — blue #2255a4, dash pattern: none / 8,5
  ══════════════════════════════════ -->
  <line x1="80"  y1="69"  x2="347" y2="124" stroke="#2255a4" stroke-width="2.5"/>
  <line x1="347" y1="124" x2="613" y2="237" stroke="#2255a4" stroke-width="2.5"/>
  <line x1="613" y1="237" x2="880" y2="105" stroke="#2255a4" stroke-width="2.5" stroke-dasharray="9,5"/>
  <circle cx="80"  cy="69"  r="6" fill="#2255a4" stroke="white" stroke-width="2"/>
  <circle cx="347" cy="124" r="6" fill="#2255a4" stroke="white" stroke-width="2"/>
  <circle cx="613" cy="237" r="6" fill="#2255a4" stroke="white" stroke-width="2"/>
  <circle cx="880" cy="105" r="6" fill="white" stroke="#2255a4" stroke-width="2.5"/>
  <text x="62"  y="54"  text-anchor="end"   font-size="13" fill="#2255a4" font-weight="bold">92%</text>
  <text x="334" y="109" text-anchor="end"   font-size="13" fill="#2255a4" font-weight="bold">80%</text>
  <text x="613" y="222" text-anchor="middle" font-size="13" fill="#2255a4" font-weight="bold">56%</text>
  <text x="894" y="90"  text-anchor="start"  font-size="13" fill="#2255a4" font-weight="bold">84%</text>

  <!-- ══════════════════════════════════
       π0 — dark gray #333333, dash: 4,4
  ══════════════════════════════════ -->
  <line x1="80"  y1="162" x2="347" y2="105" stroke="#333333" stroke-width="2.5"/>
  <line x1="347" y1="105" x2="613" y2="462" stroke="#333333" stroke-width="2.5"/>
  <line x1="613" y1="462" x2="880" y2="143" stroke="#333333" stroke-width="2.5" stroke-dasharray="9,5"/>
  <circle cx="80"  cy="162" r="6" fill="#333333" stroke="white" stroke-width="2"/>
  <circle cx="347" cy="105" r="6" fill="#333333" stroke="white" stroke-width="2"/>
  <circle cx="613" cy="462" r="6" fill="#333333" stroke="white" stroke-width="2"/>
  <circle cx="880" cy="143" r="6" fill="white" stroke="#333333" stroke-width="2.5"/>
  <text x="62"  y="148" text-anchor="end"   font-size="13" fill="#333333" font-weight="bold">72%</text>
  <text x="360" y="91"  text-anchor="start"  font-size="13" fill="#333333" font-weight="bold">84%</text>
  <text x="600" y="480" text-anchor="end"    font-size="13" fill="#333333" font-weight="bold">8%</text>
  <text x="894" y="132" text-anchor="start"  font-size="13" fill="#333333" font-weight="bold">76%</text>

  <!-- ══════════════════════════════════
       SmolVLA — orange #e07b00
  ══════════════════════════════════ -->
  <line x1="80"  y1="312" x2="347" y2="387" stroke="#e07b00" stroke-width="2.5"/>
  <line x1="347" y1="387" x2="613" y2="481" stroke="#e07b00" stroke-width="2.5"/>
  <line x1="613" y1="481" x2="880" y2="87"  stroke="#e07b00" stroke-width="2.5" stroke-dasharray="9,5"/>
  <circle cx="80"  cy="312" r="6" fill="#e07b00" stroke="white" stroke-width="2"/>
  <circle cx="347" cy="387" r="6" fill="#e07b00" stroke="white" stroke-width="2"/>
  <circle cx="613" cy="481" r="6" fill="#e07b00" stroke="white" stroke-width="2"/>
  <circle cx="880" cy="87"  r="6" fill="white" stroke="#e07b00" stroke-width="2.5"/>
  <text x="62"  y="314" text-anchor="end"   font-size="13" fill="#e07b00" font-weight="bold">40%</text>
  <text x="334" y="404" text-anchor="end"   font-size="13" fill="#e07b00" font-weight="bold">24%</text>
  <text x="626" y="497" text-anchor="start"  font-size="13" fill="#e07b00" font-weight="bold">4%</text>
  <text x="894" y="73"  text-anchor="start"  font-size="13" fill="#e07b00" font-weight="bold">88%</text>

  <!-- ══════════════════════════════════
       XVLA — green #1a8c3a
  ══════════════════════════════════ -->
  <line x1="80"  y1="218" x2="347" y2="350" stroke="#1a8c3a" stroke-width="2.5"/>
  <line x1="347" y1="350" x2="613" y2="312" stroke="#1a8c3a" stroke-width="2.5"/>
  <line x1="613" y1="312" x2="880" y2="425" stroke="#1a8c3a" stroke-width="2.5" stroke-dasharray="9,5"/>
  <circle cx="80"  cy="218" r="6" fill="#1a8c3a" stroke="white" stroke-width="2"/>
  <circle cx="347" cy="350" r="6" fill="#1a8c3a" stroke="white" stroke-width="2"/>
  <circle cx="613" cy="312" r="6" fill="#1a8c3a" stroke="white" stroke-width="2"/>
  <circle cx="880" cy="425" r="6" fill="white" stroke="#1a8c3a" stroke-width="2.5"/>
  <text x="62"  y="220" text-anchor="end"   font-size="13" fill="#1a8c3a" font-weight="bold">60%</text>
  <text x="360" y="365" text-anchor="start"  font-size="13" fill="#1a8c3a" font-weight="bold">32%</text>
  <text x="626" y="309" text-anchor="start"  font-size="13" fill="#1a8c3a" font-weight="bold">40%</text>
  <text x="894" y="442" text-anchor="start"  font-size="13" fill="#1a8c3a" font-weight="bold">16%</text>

  <!-- ═══ LEGEND ═══ -->
  <rect x="920" y="90" width="160" height="110" rx="6" fill="white" stroke="#bbb" stroke-width="1.2"/>
  <text x="1000" y="112" text-anchor="middle" font-size="14" font-weight="bold" fill="#333">Model</text>
  <!-- ACT -->
  <line x1="934" y1="130" x2="958" y2="130" stroke="#2255a4" stroke-width="2.5"/>
  <circle cx="946" cy="130" r="5" fill="#2255a4" stroke="white" stroke-width="1.5"/>
  <text x="965" y="134" font-size="14" fill="#222">ACT</text>
  <!-- π0 -->
  <line x1="934" y1="152" x2="958" y2="152" stroke="#333333" stroke-width="2.5"/>
  <circle cx="946" cy="152" r="5" fill="#333333" stroke="white" stroke-width="1.5"/>
  <text x="965" y="156" font-size="14" fill="#222">π0</text>
  <!-- SmolVLA -->
  <line x1="934" y1="174" x2="958" y2="174" stroke="#e07b00" stroke-width="2.5"/>
  <circle cx="946" cy="174" r="5" fill="#e07b00" stroke="white" stroke-width="1.5"/>
  <text x="965" y="178" font-size="14" fill="#222">SmolVLA</text>
  <!-- XVLA -->
  <line x1="934" y1="196" x2="958" y2="196" stroke="#1a8c3a" stroke-width="2.5"/>
  <circle cx="946" cy="196" r="5" fill="#1a8c3a" stroke="white" stroke-width="1.5"/>
  <text x="965" y="200" font-size="14" fill="#222">X-VLA</text>

  <!-- ═══ FOOTER ═══ -->
  <line x1="80" y1="572" x2="880" y2="572" stroke="#e0e0e0" stroke-width="1"/>
  <text x="80" y="588" font-size="12" fill="#999" font-style="italic">Solid: C1–C3; dashed: C4 (ambiguous; interpret separately).</text>

</svg>
